<svg xmlns="http://www.w3.org/2000/svg" xmlns:xlink="http://www.w3.org/1999/xlink" viewBox="0 0 713.38 686.17"><defs><style>.cls-1{fill:url(#radial-gradient);}.cls-2{fill:url(#radial-gradient-2);}.cls-3,.cls-5{fill:#fff;}.cls-4{isolation:isolate;}.cls-5,.cls-9{opacity:0.2;}.cls-6{mask:url(#mask);}.cls-7{opacity:0.4;fill:url(#linear-gradient);}.cls-19,.cls-7{mix-blend-mode:multiply;}.cls-8{fill:#1a1a1a;}.cls-9{fill:url(#ÅÂÁ_Ï_ÌÌ_È_ËÂÌÚ_17);}.cls-10{fill:url(#ÅÂÁ_Ï_ÌÌ_È_ËÂÌÚ_2);}.cls-11{fill:#ccc;}.cls-12{fill:#b3b3b3;}.cls-13{fill:#f3f3f3;}.cls-14{fill:#d1d1d1;}.cls-15{fill:#d8d8d8;}.cls-16{fill:#313946;}.cls-17{fill:#333;}.cls-18{mask:url(#mask-2);}.cls-19{opacity:0.3;fill:url(#linear-gradient-2);}.cls-20{fill:#2c4d6e;}.cls-21{fill:#ff2844;}.cls-22{fill:#ffc700;}.cls-23{fill:#39b54a;}.cls-24{fill:#dc444f;}.cls-25{clip-path:url(#clip-path);}.cls-26{clip-path:url(#clip-path-2);}.cls-27{clip-path:url(#clip-path-3);}.cls-28{clip-path:url(#clip-path-4);}.cls-29{clip-path:url(#clip-path-5);}.cls-30{clip-path:url(#clip-path-6);}</style><radialGradient id="radial-gradient" cx="1733" cy="3458.13" r="422.28" gradientTransform="matrix(0.72, 0, 0, -0.56, -694.63, 2500.98)" gradientUnits="userSpaceOnUse"><stop offset="0" stop-color="#fff"/><stop offset="0.16" stop-color="#fcfcfc"/><stop offset="0.29" stop-color="#f2f2f2"/><stop offset="0.41" stop-color="#e1e1e1"/><stop offset="0.52" stop-color="#c9c9c9"/><stop offset="0.63" stop-color="#aaa"/><stop offset="0.74" stop-color="#848484"/><stop offset="0.84" stop-color="#575757"/><stop offset="0.94" stop-color="#242424"/><stop offset="1"/></radialGradient><radialGradient id="radial-gradient-2" cx="750.32" cy="2594.69" r="226.87" gradientTransform="matrix(0, -0.69, 0.25, 0, -79.34, 948.21)" xlink:href="#radial-gradient"/><mask id="mask" x="40.21" y="512.41" width="633.33" height="141.18" maskUnits="userSpaceOnUse"><g transform="translate(-202.23 -17)"><rect class="cls-1" x="242.44" y="529.43" width="613.62" height="74.56"/></g></mask><linearGradient id="linear-gradient" x1="644.04" y1="-2587.86" x2="644.04" y2="-2481.23" gradientTransform="matrix(-0.58, 0, 0, 1.22, 733.21, 3678.16)" gradientUnits="userSpaceOnUse"><stop offset="0" stop-color="#71756f"/><stop offset="0.03" stop-color="#828680"/><stop offset="0.1" stop-color="#a3a6a2"/><stop offset="0.18" stop-color="#c0c2bf"/><stop offset="0.27" stop-color="#d7d8d7"/><stop offset="0.37" stop-color="#e9eae9"/><stop offset="0.49" stop-color="#f6f6f6"/><stop offset="0.65" stop-color="#fdfdfd"/><stop offset="1" stop-color="#fff"/></linearGradient><linearGradient id="ÅÂÁ_Ï_ÌÌ_È_ËÂÌÚ_17" x1="763.47" y1="364.3" x2="635.24" y2="142.2" gradientTransform="matrix(-1, 0, 0, 1, 1080, 0)" gradientUnits="userSpaceOnUse"><stop offset="0"/><stop offset="1" stop-color="#fff"/></linearGradient><linearGradient id="ÅÂÁ_Ï_ÌÌ_È_ËÂÌÚ_2" x1="355.63" y1="115.29" x2="355.63" y2="544.5" gradientUnits="userSpaceOnUse"><stop offset="0" stop-color="#00beff"/><stop offset="1" stop-color="#007dff"/></linearGradient><mask id="mask-2" x="195.89" y="404.38" width="320.78" height="33.63" maskUnits="userSpaceOnUse"><g transform="translate(-202.23 -17)"><rect class="cls-2" x="551.61" y="271.99" width="17.64" height="316.9" transform="translate(129.16 990.23) rotate(-89.91)"/></g></mask><linearGradient id="linear-gradient-2" x1="625.4" y1="-1689.25" x2="625.4" y2="-1632.45" gradientTransform="matrix(0, 0.54, -0.54, 0, -333.33, 101.15)" xlink:href="#linear-gradient"/><clipPath id="clip-path" transform="translate(-202.23 -17)"><path class="cls-3" d="M542.72,375.24c.08,1,.6,1.86,1.75,1.86s1.65-.57,1.65-1.73-.45-1.63-1.87-2.29c-1.64-.76-2.37-1.45-2.37-2.92a2.62,2.62,0,0,1,5.23.09H546c-.05-.49-.21-1.65-1.51-1.65a1.33,1.33,0,0,0-1.43,1.47c0,1,.44,1.42,1.76,2,1.83.84,2.5,1.68,2.5,3.18a2.58,2.58,0,0,1-2.86,2.76,2.63,2.63,0,0,1-2.88-2.79Z"/></clipPath><clipPath id="clip-path-2" transform="translate(-202.23 -17)"><path class="cls-3" d="M548.73,370.36h1.13v7.53h-1.13Zm0-3h1.13v1.56h-1.13Z"/></clipPath><clipPath id="clip-path-3" transform="translate(-202.23 -17)"><path class="cls-3" d="M556.63,377.41c0,2-.49,3.36-2.74,3.36-2,0-2.45-1.26-2.5-2.07h1.14a1.24,1.24,0,0,0,1.4,1.15c1.31,0,1.58-.92,1.58-2.44v-.69a1.77,1.77,0,0,1-1.82,1.15c-1.58,0-2.36-1.29-2.36-3.65,0-2.71,1-4,2.53-4,1.06,0,1.51.49,1.65,1a7.63,7.63,0,0,1,.06-.86h1.08c0,.4,0,1.16,0,2.18Zm-4.13-3.22c0,1.83.52,2.72,1.49,2.72,1.21,0,1.54-1.15,1.54-2.9s-.25-2.81-1.44-2.81S552.5,372.24,552.5,374.19Z"/></clipPath><clipPath id="clip-path-4" transform="translate(-202.23 -17)"><path class="cls-3" d="M558.5,372.69c0-1.54,0-2,0-2.33h1.09a9.37,9.37,0,0,1,0,1,1.85,1.85,0,0,1,1.85-1.12c1.14,0,2,.62,2,2.3v5.36h-1.14v-5.15c0-.92-.32-1.54-1.2-1.54-1.06,0-1.51.67-1.51,2.21v4.48H558.5Z"/></clipPath><clipPath id="clip-path-5" transform="translate(-202.23 -17)"><path class="cls-3" d="M569.47,367.81v10.08h-1.15V367.81Z"/></clipPath><clipPath id="clip-path-6" transform="translate(-202.23 -17)"><path class="cls-3" d="M571.29,372.69c0-1.54,0-2,0-2.33h1.09a9.37,9.37,0,0,1,0,1,1.86,1.86,0,0,1,1.86-1.12c1.13,0,2,.62,2,2.3v5.36h-1.14v-5.15c0-.92-.31-1.54-1.2-1.54-1.06,0-1.51.67-1.51,2.21v4.48h-1.14Z"/></clipPath></defs><g class="cls-4"><g id="Layer_1" data-name="Layer 1"><ellipse class="cls-5" cx="356.69" cy="343.09" rx="356.69" ry="343.09"/><ellipse class="cls-5" cx="356.69" cy="343.09" rx="285.35" ry="274.47"/><g class="cls-6"><polygon class="cls-7" points="47.95 653.6 673.54 652.55 661.23 537.42 47.61 537.46 47.95 653.6"/></g><path class="cls-8" d="M332.16,166H783.57c8.6,0,15.57,6.7,15.57,15V473.82H316.6V181C316.6,172.73,323.56,166,332.16,166Z" transform="translate(-202.23 -17)"/><path class="cls-9" d="M332.16,166H486a151.87,151.87,0,0,1,5.65,41.11c0,87-73.35,157.58-163.83,157.58q-5.67,0-11.24-.38V181C316.6,172.73,323.56,166,332.16,166Z" transform="translate(-202.23 -17)"/><polygon class="cls-10" points="572.46 416.65 572.46 435.92 138.8 435.92 138.8 416.65 138.8 169.94 572.46 169.94 572.46 416.65"/><path class="cls-11" d="M870.4,549.36a7.13,7.13,0,0,1-7.26,7H252.71a7.14,7.14,0,0,1-7.27-7v-7.08h625Z" transform="translate(-202.23 -17)"/><path class="cls-12" d="M873.77,549.08a1.54,1.54,0,0,1-1.57,1.51H243.65a1.54,1.54,0,0,1-1.58-1.51v-8.22h631.7Z" transform="translate(-202.23 -17)"/><path class="cls-11" d="M594,542.23a3.57,3.57,0,0,1-3.63,3.5H525.51a3.57,3.57,0,0,1-3.64-3.5v-1.37H594Z" transform="translate(-202.23 -17)"/><polygon class="cls-13" points="596.71 451.56 671.54 523.86 39.84 523.86 114.67 451.56 596.71 451.56"/><polygon class="cls-14" points="622.04 494.62 578.58 494.62 547.98 456.74 585.48 456.74 622.04 494.62"/><polygon class="cls-14" points="163.41 456.74 132.81 494.62 89.33 494.62 125.9 456.74 163.41 456.74"/><path class="cls-15" d="M494.05,521.26c.77-3.45,4.65-6.19,8.67-6.19H613.13c4,0,7.89,2.74,8.67,6.19l2.1,9.42c.85,3.79-2,6.92-6.32,6.92H498.26c-4.34,0-7.16-3.13-6.32-6.92Z" transform="translate(-202.23 -17)"/><polygon class="cls-16" points="565.69 494.62 541.44 494.62 536.8 487.72 560.45 487.72 565.69 494.62"/><polygon class="cls-16" points="543.22 465.09 521.56 465.09 517.85 459.57 539.02 459.57 543.22 465.09"/><polygon class="cls-16" points="538.33 458.67 506.87 458.67 505.66 456.74 536.86 456.74 538.33 458.67"/><polygon class="cls-16" points="502.58 458.67 481.48 458.67 480.47 456.74 501.4 456.74 502.58 458.67"/><polygon class="cls-16" points="476.67 458.67 455.57 458.67 454.77 456.74 475.7 456.74 476.67 458.67"/><polygon class="cls-16" points="451.1 458.67 430 458.67 429.4 456.74 450.33 456.74 451.1 458.67"/><polygon class="cls-16" points="425.19 458.67 404.09 458.67 403.7 456.74 424.63 456.74 425.19 458.67"/><polygon class="cls-16" points="399.73 458.67 378.64 458.67 378.45 456.74 399.38 456.74 399.73 458.67"/><polygon class="cls-16" points="373.68 456.74 373.82 458.67 352.73 458.67 352.75 456.74 373.68 456.74"/><polygon class="cls-16" points="348.31 456.74 348.25 458.67 327.16 458.67 327.38 456.74 348.31 456.74"/><polygon class="cls-16" points="323.65 456.74 323.39 458.67 302.29 458.67 302.72 456.74 323.65 456.74"/><polygon class="cls-16" points="298.5 456.74 298.04 458.67 276.94 458.67 277.57 456.74 298.5 456.74"/><polygon class="cls-16" points="272.21 456.74 271.54 458.67 250.44 458.67 251.29 456.74 272.21 456.74"/><polygon class="cls-16" points="246.51 456.74 245.63 458.67 224.53 458.67 225.59 456.74 246.51 456.74"/><polygon class="cls-16" points="221.14 456.74 220.05 458.67 198.96 458.67 200.22 456.74 221.14 456.74"/><polygon class="cls-16" points="195.44 456.74 194.15 458.67 173.05 458.67 174.52 456.74 195.44 456.74"/><polygon class="cls-16" points="553.82 479.02 512.86 479.02 509.15 472.87 549.14 472.87 553.82 479.02"/><polygon class="cls-16" points="548.37 471.86 513.67 471.86 510.04 466.04 543.95 466.04 548.37 471.86"/><polygon class="cls-16" points="559.58 486.59 499.96 486.59 496.46 480.09 554.63 480.09 559.58 486.59"/><polygon class="cls-16" points="205.97 472.87 202.35 479.02 157.63 479.02 162.31 472.87 205.97 472.87"/><polygon class="cls-16" points="215 480.09 211.49 486.59 151.87 486.59 156.82 480.09 215 480.09"/><polygon class="cls-16" points="536.71 494.62 512.46 494.62 508.54 487.72 532.19 487.72 536.71 494.62"/><polygon class="cls-16" points="495.33 486.59 471.78 486.59 468.96 480.09 491.94 480.09 495.33 486.59"/><polygon class="cls-16" points="466.41 486.59 442.86 486.59 440.74 480.09 463.72 480.09 466.41 486.59"/><polygon class="cls-16" points="438.61 486.59 415.06 486.59 413.62 480.09 436.59 480.09 438.61 486.59"/><polygon class="cls-16" points="409.68 486.59 386.14 486.59 385.4 480.09 408.37 480.09 409.68 486.59"/><polygon class="cls-16" points="381.42 486.59 357.88 486.59 357.82 480.09 380.8 480.09 381.42 486.59"/><polygon class="cls-16" points="352.58 480.09 352.5 486.59 328.95 486.59 329.6 480.09 352.58 480.09"/><polygon class="cls-16" points="325.45 480.09 324.7 486.59 301.15 486.59 302.48 480.09 325.45 480.09"/><polygon class="cls-16" points="297.23 480.09 295.78 486.59 272.23 486.59 274.26 480.09 297.23 480.09"/><polygon class="cls-16" points="270.23 480.09 268.1 486.59 244.55 486.59 247.25 480.09 270.23 480.09"/><polygon class="cls-16" points="242 480.09 239.17 486.59 215.63 486.59 219.03 480.09 242 480.09"/><polygon class="cls-16" points="507.65 479.02 484.77 479.02 481.72 472.87 504.06 472.87 507.65 479.02"/><polygon class="cls-16" points="479.54 479.02 456.66 479.02 454.28 472.87 476.62 472.87 479.54 479.02"/><polygon class="cls-16" points="452.53 479.02 429.65 479.02 427.9 472.87 450.24 472.87 452.53 479.02"/><polygon class="cls-16" points="424.43 479.02 401.54 479.02 400.46 472.87 422.8 472.87 424.43 479.02"/><polygon class="cls-16" points="396.96 479.02 374.08 479.02 373.65 472.87 395.99 472.87 396.96 479.02"/><polygon class="cls-16" points="368.55 472.87 368.86 479.02 345.98 479.02 346.2 472.87 368.55 472.87"/><polygon class="cls-16" points="342.17 472.87 341.85 479.02 318.96 479.02 319.83 472.87 342.17 472.87"/><polygon class="cls-16" points="314.73 472.87 313.74 479.02 290.86 479.02 292.39 472.87 314.73 472.87"/><polygon class="cls-16" points="288.47 472.87 286.84 479.02 263.96 479.02 266.13 472.87 288.47 472.87"/><polygon class="cls-16" points="261.02 472.87 258.74 479.02 235.85 479.02 238.68 472.87 261.02 472.87"/><polygon class="cls-16" points="233.5 472.87 230.54 479.02 207.66 479.02 211.16 472.87 233.5 472.87"/><polygon class="cls-16" points="508.54 471.86 486.28 471.86 483.28 466.04 505.02 466.04 508.54 471.86"/><polygon class="cls-16" points="481.2 471.86 458.95 471.86 456.58 466.04 478.32 466.04 481.2 471.86"/><polygon class="cls-16" points="454.93 471.86 432.68 471.86 430.91 466.04 452.65 466.04 454.93 471.86"/><polygon class="cls-16" points="427.6 471.86 405.35 471.86 404.2 466.04 425.95 466.04 427.6 471.86"/><polygon class="cls-16" points="400.89 471.86 378.64 471.86 378.11 466.04 399.86 466.04 400.89 471.86"/><polygon class="cls-16" points="373.15 466.04 373.56 471.86 351.31 471.86 351.41 466.04 373.15 466.04"/><polygon class="cls-16" points="347.49 466.04 347.29 471.86 325.04 471.86 325.74 466.04 347.49 466.04"/><polygon class="cls-16" points="320.78 466.04 319.96 471.86 297.7 471.86 299.04 466.04 320.78 466.04"/><polygon class="cls-16" points="294.14 466.04 292.7 471.86 270.44 471.86 272.4 466.04 294.14 466.04"/><polygon class="cls-16" points="268.52 466.04 266.47 471.86 244.21 471.86 246.77 466.04 268.52 466.04"/><polygon class="cls-16" points="241.73 466.04 239.05 471.86 216.8 471.86 219.99 466.04 241.73 466.04"/><polygon class="cls-16" points="215.54 466.04 212.24 471.86 189.99 471.86 193.79 466.04 215.54 466.04"/><polygon class="cls-16" points="189.25 466.04 185.33 471.86 163.08 471.86 167.51 466.04 189.25 466.04"/><polygon class="cls-16" points="517.34 465.09 495.68 465.09 492.55 459.57 513.72 459.57 517.34 465.09"/><polygon class="cls-16" points="490.73 465.09 469.08 465.09 466.54 459.57 487.71 459.57 490.73 465.09"/><polygon class="cls-16" points="465.17 465.09 443.51 465.09 441.55 459.57 462.72 459.57 465.17 465.09"/><polygon class="cls-16" points="438.57 465.09 416.91 465.09 415.54 459.57 436.71 459.57 438.57 465.09"/><polygon class="cls-16" points="412.57 465.09 390.92 465.09 390.13 459.57 411.3 459.57 412.57 465.09"/><polygon class="cls-16" points="385.97 465.09 364.31 465.09 364.12 459.57 385.3 459.57 385.97 465.09"/><polygon class="cls-16" points="360.3 459.57 360.41 465.09 338.75 465.09 339.13 459.57 360.3 459.57"/><polygon class="cls-16" points="334.29 459.57 333.81 465.09 312.15 465.09 313.12 459.57 334.29 459.57"/><polygon class="cls-16" points="309.41 459.57 308.35 465.09 286.69 465.09 288.23 459.57 309.41 459.57"/><polygon class="cls-16" points="283.4 459.57 281.74 465.09 260.09 465.09 262.23 459.57 283.4 459.57"/><polygon class="cls-16" points="257.31 459.57 255.06 465.09 233.4 465.09 236.14 459.57 257.31 459.57"/><polygon class="cls-16" points="231.81 459.57 228.97 465.09 207.31 465.09 210.63 459.57 231.81 459.57"/><polygon class="cls-16" points="206.2 459.57 202.78 465.09 168.23 465.09 172.43 459.57 206.2 459.57"/><polygon class="cls-16" points="507.3 494.62 483.05 494.62 479.86 487.72 503.51 487.72 507.3 494.62"/><polygon class="cls-16" points="260.52 487.72 258.08 494.62 233.83 494.62 236.87 487.72 260.52 487.72"/><polygon class="cls-16" points="231.84 487.72 228.67 494.62 204.42 494.62 208.2 487.72 231.84 487.72"/><polygon class="cls-16" points="174.9 487.37 170.27 494.25 146.05 494.25 151.28 487.37 174.9 487.37"/><polygon class="cls-16" points="203.45 487.37 201.73 490.41 177.85 490.41 179.83 487.37 203.45 487.37"/><polygon class="cls-16" points="201.12 491.49 199.34 494.62 175.09 494.62 177.14 491.49 201.12 491.49"/><polygon class="cls-16" points="478.32 494.62 446.67 494.62 444.4 487.72 475.25 487.72 478.32 494.62"/><polygon class="cls-16" points="295.69 487.72 294.15 494.62 262.5 494.62 264.83 487.72 295.69 487.72"/><polygon class="cls-16" points="438.06 487.72 440.17 494.62 299.62 494.62 301.02 487.72 438.06 487.72"/><path class="cls-17" d="M380.76,468.56H735.17c.92,1.22.25,2.21-1.5,2.21H382.25c-1.76,0-2.43-1-1.5-2.21Z" transform="translate(-202.23 -17)"/><g class="cls-18"><rect class="cls-19" x="542.97" y="282.7" width="27.25" height="316.9" transform="translate(-87.62 980.08) rotate(-89.91)"/></g><path class="cls-3" d="M388.05,275.93V413.58c0,8.13,6.86,14.73,15.32,14.73h311.1c8.46,0,15.32-6.6,15.32-14.73V275.93Z" transform="translate(-202.23 -17)"/><path class="cls-3" d="M729.79,352.12V143.57c0-8.13-6.86-14.73-15.32-14.73H403.37c-8.46,0-15.32,6.6-15.32,14.73V352.12Z" transform="translate(-202.23 -17)"/><path class="cls-20" d="M729.79,167.47V137.13c0-4.58-4.95-8.29-11.07-8.29H399.12c-6.11,0-11.07,3.71-11.07,8.29v30.34Z" transform="translate(-202.23 -17)"/><path class="cls-21" d="M402.45,148.16a7.85,7.85,0,1,0,7.84-7.54A7.7,7.7,0,0,0,402.45,148.16Z" transform="translate(-202.23 -17)"/><path class="cls-22" d="M423.18,148.16a7.85,7.85,0,1,0,7.84-7.54A7.7,7.7,0,0,0,423.18,148.16Z" transform="translate(-202.23 -17)"/><path class="cls-23" d="M443.92,148.16a7.84,7.84,0,1,0,7.83-7.54A7.69,7.69,0,0,0,443.92,148.16Z" transform="translate(-202.23 -17)"/><path class="cls-20" d="M637.21,291H480.63C472,291,465,284.28,465,276s7-15,15.62-15H637.21c8.61,0,15.62,6.74,15.62,15S645.82,291,637.21,291ZM480.63,262.39c-7.8,0-14.14,6.1-14.14,13.6a13.9,13.9,0,0,0,14.14,13.61H637.21c7.8,0,14.15-6.11,14.15-13.61s-6.35-13.6-14.15-13.6Z" transform="translate(-202.23 -17)"/><rect class="cls-24" x="263.52" y="342.74" width="186.34" height="28.63" rx="2.96"/><path class="cls-3" d="M542.72,375.24c.08,1,.6,1.86,1.75,1.86s1.65-.57,1.65-1.73-.45-1.63-1.87-2.29c-1.64-.76-2.37-1.45-2.37-2.92a2.62,2.62,0,0,1,5.23.09H546c-.05-.49-.21-1.65-1.51-1.65a1.33,1.33,0,0,0-1.43,1.47c0,1,.44,1.42,1.76,2,1.83.84,2.5,1.68,2.5,3.18a2.58,2.58,0,0,1-2.86,2.76,2.63,2.63,0,0,1-2.88-2.79Z" transform="translate(-202.23 -17)"/><g class="cls-25"><polygon class="cls-3" points="345.07 350.73 339.33 351.01 339.33 350.67 345.07 350.67 345.07 350.73"/><polygon class="cls-3" points="345.07 352.3 339.33 352.58 339.33 351.01 345.07 350.73 345.07 352.3"/><polygon class="cls-3" points="345.07 353.87 339.33 354.16 339.33 352.58 345.07 352.3 345.07 353.87"/><polygon class="cls-3" points="345.07 355.44 339.33 355.73 339.33 354.16 345.07 353.87 345.07 355.44"/><polygon class="cls-3" points="345.07 357.01 339.33 357.3 339.33 355.73 345.07 355.44 345.07 357.01"/><polygon class="cls-3" points="345.07 358.59 339.33 358.87 339.33 357.3 345.07 357.01 345.07 358.59"/><polygon class="cls-3" points="345.07 360.16 339.33 360.44 339.33 358.87 345.07 358.59 345.07 360.16"/><polygon class="cls-3" points="339.33 360.44 345.07 360.16 345.07 361.03 339.33 361.03 339.33 360.44"/></g><path class="cls-3" d="M548.73,370.36h1.13v7.53h-1.13Zm0-3h1.13v1.56h-1.13Z" transform="translate(-202.23 -17)"/><g class="cls-26"><polygon class="cls-3" points="347.63 350.6 346.5 350.65 346.5 350.32 347.63 350.32 347.63 350.6"/><polygon class="cls-3" points="346.5 350.65 347.63 350.6 347.63 351.88 346.5 351.88 346.5 350.65"/><polygon class="cls-3" points="347.63 353.74 346.5 353.8 346.5 353.36 347.63 353.36 347.63 353.74"/><polygon class="cls-3" points="347.63 355.31 346.5 355.37 346.5 353.8 347.63 353.74 347.63 355.31"/><polygon class="cls-3" points="347.63 356.89 346.5 356.94 346.5 355.37 347.63 355.31 347.63 356.89"/><polygon class="cls-3" points="347.63 358.46 346.5 358.51 346.5 356.94 347.63 356.89 347.63 358.46"/><polygon class="cls-3" points="347.63 360.03 346.5 360.09 346.5 358.51 347.63 358.46 347.63 360.03"/><polygon class="cls-3" points="346.5 360.09 347.63 360.03 347.63 360.89 346.5 360.89 346.5 360.09"/></g><path class="cls-3" d="M556.63,377.41c0,2-.49,3.36-2.74,3.36-2,0-2.45-1.26-2.5-2.07h1.14a1.24,1.24,0,0,0,1.4,1.15c1.31,0,1.58-.92,1.58-2.44v-.69a1.77,1.77,0,0,1-1.82,1.15c-1.58,0-2.36-1.29-2.36-3.65,0-2.71,1-4,2.53-4,1.06,0,1.51.49,1.65,1a7.63,7.63,0,0,1,.06-.86h1.08c0,.4,0,1.16,0,2.18Zm-4.13-3.22c0,1.83.52,2.72,1.49,2.72,1.21,0,1.54-1.15,1.54-2.9s-.25-2.81-1.44-2.81S552.5,372.24,552.5,374.19Z" transform="translate(-202.23 -17)"/><g class="cls-27"><polygon class="cls-3" points="353.3 355.03 350.26 355.18 350.26 354.2 353.3 354.2 353.3 355.03"/><polygon class="cls-3" points="353.3 356.61 350.26 356.76 350.26 355.18 353.3 355.03 353.3 356.61"/><polygon class="cls-3" points="353.3 358.18 350.26 358.33 350.26 356.76 353.3 356.61 353.3 358.18"/><polygon class="cls-3" points="353.3 359.75 350.26 359.9 350.26 358.33 353.3 358.18 353.3 359.75"/><polygon class="cls-3" points="350.26 359.9 353.3 359.75 353.3 359.91 350.26 359.91 350.26 359.9"/><polygon class="cls-3" points="354.42 353.4 349.1 353.67 349.1 353.24 354.42 353.24 354.42 353.4"/><polygon class="cls-3" points="354.42 354.98 349.1 355.24 349.1 353.67 354.42 353.4 354.42 354.98"/><polygon class="cls-3" points="354.42 356.55 349.1 356.81 349.1 355.24 354.42 354.98 354.42 356.55"/><polygon class="cls-3" points="354.42 358.12 349.1 358.39 349.1 356.81 354.42 356.55 354.42 358.12"/><polygon class="cls-3" points="354.42 359.69 349.1 359.96 349.1 358.39 354.42 358.12 354.42 359.69"/><polygon class="cls-3" points="354.42 361.26 349.1 361.53 349.1 359.96 354.42 359.69 354.42 361.26"/><polygon class="cls-3" points="354.42 362.84 349.1 363.1 349.1 361.53 354.42 361.26 354.42 362.84"/><polygon class="cls-3" points="349.1 363.1 354.42 362.84 354.42 363.77 349.1 363.77 349.1 363.1"/></g><path class="cls-3" d="M558.5,372.69c0-1.54,0-2,0-2.33h1.09a9.37,9.37,0,0,1,0,1,1.85,1.85,0,0,1,1.85-1.12c1.14,0,2,.62,2,2.3v5.36h-1.14v-5.15c0-.92-.32-1.54-1.2-1.54-1.06,0-1.51.67-1.51,2.21v4.48H558.5Z" transform="translate(-202.23 -17)"/><g class="cls-28"><polygon class="cls-3" points="357.86 353.23 356.25 353.31 356.25 353.23 357.86 353.23"/><polygon class="cls-3" points="361.25 354.64 356.25 354.89 356.25 353.31 357.86 353.23 361.25 353.23 361.25 354.64"/><polygon class="cls-3" points="361.25 356.21 356.25 356.46 356.25 354.89 361.25 354.64 361.25 356.21"/><polygon class="cls-3" points="361.25 357.78 356.25 358.03 356.25 356.46 361.25 356.21 361.25 357.78"/><polygon class="cls-3" points="361.25 359.35 356.25 359.6 356.25 358.03 361.25 357.78 361.25 359.35"/><polygon class="cls-3" points="356.25 359.6 361.25 359.35 361.25 360.89 356.25 360.89 356.25 359.6"/></g><path class="cls-3" d="M569.47,367.81v10.08h-1.15V367.81Z" transform="translate(-202.23 -17)"/><g class="cls-29"><polygon class="cls-3" points="367.24 351.19 366.09 351.25 366.09 350.81 367.24 350.81 367.24 351.19"/><polygon class="cls-3" points="367.24 352.77 366.09 352.82 366.09 351.25 367.24 351.19 367.24 352.77"/><polygon class="cls-3" points="367.24 354.34 366.09 354.4 366.09 352.82 367.24 352.77 367.24 354.34"/><polygon class="cls-3" points="367.24 355.91 366.09 355.97 366.09 354.4 367.24 354.34 367.24 355.91"/><polygon class="cls-3" points="367.24 357.48 366.09 357.54 366.09 355.97 367.24 355.91 367.24 357.48"/><polygon class="cls-3" points="367.24 359.06 366.09 359.11 366.09 357.54 367.24 357.48 367.24 359.06"/><polygon class="cls-3" points="367.24 360.63 366.09 360.69 366.09 359.11 367.24 359.06 367.24 360.63"/><polygon class="cls-3" points="366.09 360.69 367.24 360.63 367.24 360.89 366.09 360.89 366.09 360.69"/></g><path class="cls-3" d="M571.29,372.69c0-1.54,0-2,0-2.33h1.09a9.37,9.37,0,0,1,0,1,1.86,1.86,0,0,1,1.86-1.12c1.13,0,2,.62,2,2.3v5.36h-1.14v-5.15c0-.92-.31-1.54-1.2-1.54-1.06,0-1.51.67-1.51,2.21v4.48h-1.14Z" transform="translate(-202.23 -17)"/><g class="cls-30"><polygon class="cls-3" points="374.05 354 369.05 354.25 369.05 353.23 374.05 353.23 374.05 354"/><polygon class="cls-3" points="374.05 355.57 369.05 355.82 369.05 354.25 374.05 354 374.05 355.57"/><polygon class="cls-3" points="374.05 357.14 369.05 357.39 369.05 355.82 374.05 355.57 374.05 357.14"/><polygon class="cls-3" points="374.05 358.72 369.05 358.97 369.05 357.39 374.05 357.14 374.05 358.72"/><polygon class="cls-3" points="374.05 360.29 369.05 360.54 369.05 358.97 374.05 358.72 374.05 360.29"/><polygon class="cls-3" points="369.05 360.54 374.05 360.29 374.05 360.89 369.05 360.89 369.05 360.54"/></g><path class="cls-20" d="M490.06,276.34h-3.2v3.53h3.55l-.14.9h-4.46v-9.23h4.4v.91h-3.35v3h3.2Z" transform="translate(-202.23 -17)"/><path class="cls-20" d="M491.43,276c0-1.23,0-1.74,0-2.07h1a7.24,7.24,0,0,1,0,.88,1.65,1.65,0,0,1,1.6-1,1.38,1.38,0,0,1,1.48,1,1.79,1.79,0,0,1,1.74-1c.89,0,1.73.41,1.73,2v5h-1v-4.83c0-.7-.21-1.29-1-1.29s-1.22.77-1.22,1.7v4.42h-1V276c0-.85-.29-1.31-1-1.31-.86,0-1.26.75-1.26,1.8v4.32h-1Z" transform="translate(-202.23 -17)"/><path class="cls-20" d="M504.73,279.55c0,.43,0,1,.06,1.22h-1a5.38,5.38,0,0,1-.07-.79,1.68,1.68,0,0,1-1.69.91,1.81,1.81,0,0,1-1.87-2c0-1.26.88-2.21,2.76-2.21a5.26,5.26,0,0,1,.75,0v-.92c0-.54-.11-1.22-1.08-1.22s-1.11.72-1.16,1.18h-1a1.91,1.91,0,0,1,2.19-2c1.39,0,2.05.65,2.05,1.92Zm-1-2.05a6.12,6.12,0,0,0-.71,0c-1.27,0-1.79.59-1.79,1.35a1.1,1.1,0,0,0,1.11,1.22c1,0,1.39-.71,1.39-2.16Z" transform="translate(-202.23 -17)"/><path class="cls-20" d="M506.45,273.88h1v6.89h-1Zm0-2.78h1v1.42h-1Z" transform="translate(-202.23 -17)"/><path class="cls-20" d="M509.22,280.77V271.1h1v9.67Z" transform="translate(-202.23 -17)"/><path class="cls-20" d="M481.43,316.1h2.47a2.37,2.37,0,0,1,2.54,2.57,2.45,2.45,0,0,1-2.7,2.67h-1.26v4h-1.05Zm1.05,4.38h1.15c1.15,0,1.74-.58,1.74-1.82a1.51,1.51,0,0,0-1.62-1.69h-1.27Z" transform="translate(-202.23 -17)"/><path class="cls-20" d="M491.61,324.11c0,.43,0,1,.05,1.22h-.94a4.28,4.28,0,0,1-.07-.79,1.69,1.69,0,0,1-1.7.91,1.81,1.81,0,0,1-1.87-2c0-1.26.89-2.21,2.76-2.21a5.26,5.26,0,0,1,.75,0v-.92c0-.54-.1-1.22-1.07-1.22s-1.12.72-1.16,1.19h-1a1.92,1.92,0,0,1,2.19-2c1.39,0,2.06.65,2.06,1.92Zm-1-2a4.29,4.29,0,0,0-.71,0c-1.27,0-1.79.59-1.79,1.35a1.09,1.09,0,0,0,1.11,1.22c1,0,1.39-.71,1.39-2.16Z" transform="translate(-202.23 -17)"/><path class="cls-20" d="M493.74,323.34a1.23,1.23,0,0,0,1.27,1.3,1,1,0,0,0,1.15-1.09c0-.71-.38-1-1.31-1.39-1.48-.55-1.91-1.06-1.91-2a1.81,1.81,0,0,1,2.05-1.82,1.85,1.85,0,0,1,2.06,2h-1a1,1,0,0,0-1.09-1.14.88.88,0,0,0-1,.95c0,.55.25.82,1.24,1.19,1.38.51,2,1,2,2.18s-.82,2-2.26,2a2,2,0,0,1-2.24-2.11Z" transform="translate(-202.23 -17)"/><path class="cls-20" d="M499.06,323.34a1.23,1.23,0,0,0,1.27,1.3,1,1,0,0,0,1.16-1.09c0-.71-.38-1-1.32-1.39-1.48-.55-1.91-1.06-1.91-2a1.81,1.81,0,0,1,2.05-1.82,1.85,1.85,0,0,1,2.06,2h-1a1,1,0,0,0-1.09-1.14.88.88,0,0,0-1,.95c0,.55.25.82,1.24,1.19,1.38.51,2,1,2,2.18s-.82,2-2.25,2a2,2,0,0,1-2.25-2.11Z" transform="translate(-202.23 -17)"/><path class="cls-20" d="M504.23,318.44c.7,3.27,1,4.84,1.16,5.78h0c.15-.9.44-2,1.33-5.78h1c.84,3.61,1.16,5,1.26,5.75h0c.11-.75.38-2,1.2-5.75h1.06l-1.76,6.89H508.4c-.52-2.25-1-4.49-1.21-5.56h0c-.13,1-.66,3-1.27,5.56h-1.13l-1.64-6.89Z" transform="translate(-202.23 -17)"/><path class="cls-20" d="M516.81,321.8c0,2.43-.85,3.65-2.46,3.65s-2.47-1.18-2.47-3.62,1-3.5,2.51-3.5S516.81,319.49,516.81,321.8Zm-3.87,0c0,1.87.48,2.76,1.42,2.76s1.39-.9,1.39-2.77-.45-2.62-1.4-2.62S512.94,320,512.94,321.83Z" transform="translate(-202.23 -17)"/><path class="cls-20" d="M518.15,320.79c0-1.1,0-1.85,0-2.35h1c0,.18,0,.5,0,1.23a2,2,0,0,1,1.9-1.33v1.09a1.81,1.81,0,0,0-1.88,2.05v3.85h-1Z" transform="translate(-202.23 -17)"/><path class="cls-20" d="M526.43,315.66v7.9c0,.67,0,1.36,0,1.77h-1c0-.18,0-.63,0-.93a1.57,1.57,0,0,1-1.68,1.05c-1.49,0-2.12-1.22-2.12-3.64,0-2.2.84-3.48,2.34-3.48.93,0,1.29.38,1.45.72v-3.39Zm-3.76,6.16c0,2,.46,2.75,1.34,2.75,1.11,0,1.41-.92,1.41-2.78,0-2-.29-2.58-1.33-2.58C523.24,319.21,522.67,319.93,522.67,321.82Z" transform="translate(-202.23 -17)"/><path class="cls-20" d="M501.66,403.42a2.3,2.3,0,0,1-2.3,2.38c-2.25,0-2.42-2.29-2.42-4.25,0-2.37.65-4.13,2.53-4.13a2.14,2.14,0,0,1,2.17,2.34h-.94c0-.28-.06-1.54-1.25-1.54s-1.54,1.75-1.54,3.33.2,3.46,1.48,3.46,1.3-1.17,1.33-1.59Z" transform="translate(-202.23 -17)"/><path class="cls-20" d="M506.53,404.6c0,.38,0,.89.05,1.08h-.83a4.21,4.21,0,0,1-.06-.69,1.51,1.51,0,0,1-1.5.8,1.6,1.6,0,0,1-1.65-1.76c0-1.12.78-1.95,2.44-1.95a6.14,6.14,0,0,1,.66,0v-.81c0-.47-.09-1.07-.95-1.07s-1,.63-1,1h-.88a1.69,1.69,0,0,1,1.93-1.76c1.23,0,1.81.57,1.81,1.69Zm-.87-1.8a4.78,4.78,0,0,0-.62,0c-1.13,0-1.59.52-1.59,1.19a1,1,0,0,0,1,1.08c.92,0,1.22-.63,1.22-1.91Z" transform="translate(-202.23 -17)"/><path class="cls-20" d="M508.05,401.48c0-1.24,0-1.6,0-1.88h.88a6.77,6.77,0,0,1,0,.8,1.5,1.5,0,0,1,1.5-.9c.91,0,1.62.5,1.62,1.85v4.33h-.92v-4.16c0-.74-.25-1.24-1-1.24s-1.21.53-1.21,1.78v3.62h-.92Z" transform="translate(-202.23 -17)"/><path class="cls-20" d="M513.57,401.48c0-1.24,0-1.6,0-1.88h.88a6.77,6.77,0,0,1,0,.8,1.5,1.5,0,0,1,1.5-.9c.91,0,1.62.5,1.62,1.85v4.33h-.92v-4.16c0-.74-.25-1.24-1-1.24s-1.21.53-1.21,1.78v3.62h-.92Z" transform="translate(-202.23 -17)"/><path class="cls-20" d="M523.13,402.57c0,2.14-.75,3.22-2.18,3.22s-2.17-1-2.17-3.2.86-3.09,2.21-3.09S523.13,400.53,523.13,402.57Zm-3.42,0c0,1.65.43,2.44,1.25,2.44s1.23-.8,1.23-2.45-.4-2.32-1.23-2.32S519.71,401,519.71,402.59Z" transform="translate(-202.23 -17)"/><path class="cls-20" d="M523.55,399.6h.9V398h.9v1.62h1.1v.75h-1.1v4c0,.42.09.68.57.68a3.09,3.09,0,0,0,.45,0v.67a2.46,2.46,0,0,1-.75.1c-.74,0-1.17-.29-1.17-1.25v-4.16h-.9Z" transform="translate(-202.23 -17)"/><path class="cls-20" d="M533.36,404.6c0,.38,0,.89,0,1.08h-.83a4.21,4.21,0,0,1-.06-.69,1.51,1.51,0,0,1-1.5.8,1.6,1.6,0,0,1-1.65-1.76c0-1.12.78-1.95,2.44-1.95a6.14,6.14,0,0,1,.66,0v-.81c0-.47-.09-1.07-1-1.07s-1,.63-1,1h-.88a1.69,1.69,0,0,1,1.93-1.76c1.23,0,1.81.57,1.81,1.69Zm-.87-1.8a4.78,4.78,0,0,0-.62,0c-1.13,0-1.59.52-1.59,1.19a1,1,0,0,0,1,1.08c.92,0,1.22-.63,1.22-1.91Z" transform="translate(-202.23 -17)"/><path class="cls-20" d="M538.67,403.82a1.93,1.93,0,0,1-2,2c-1.66,0-2.1-1.41-2.1-3.17s.58-3.12,2.18-3.12a1.82,1.82,0,0,1,1.92,1.91h-.93c0-.24-.09-1.16-1-1.16s-1.24,1-1.24,2.36.35,2.42,1.2,2.42,1-.89,1.07-1.21Z" transform="translate(-202.23 -17)"/><path class="cls-20" d="M543.62,403.82a1.93,1.93,0,0,1-2,2c-1.65,0-2.09-1.41-2.09-3.17s.57-3.12,2.18-3.12a1.82,1.82,0,0,1,1.92,1.91h-.93c0-.24-.1-1.16-1-1.16s-1.24,1-1.24,2.36.34,2.42,1.2,2.42,1-.89,1.07-1.21Z" transform="translate(-202.23 -17)"/><path class="cls-20" d="M545.38,402.8c0,1.19.21,2.23,1.21,2.23a1.14,1.14,0,0,0,1.15-1.08h.9a2,2,0,0,1-2.06,1.84c-1.86,0-2.12-1.64-2.12-3.15,0-1.93.69-3.14,2.17-3.14,1.66,0,2.06,1.31,2.06,2.83,0,.12,0,.32,0,.47Zm2.4-.69c0-1-.23-1.86-1.16-1.86-1.15,0-1.21,1.45-1.22,1.86Z" transform="translate(-202.23 -17)"/><path class="cls-20" d="M550.36,403.93a1.08,1.08,0,0,0,1.12,1.14.91.91,0,0,0,1-1c0-.63-.34-.92-1.17-1.23-1.3-.48-1.68-.93-1.68-1.78a1.59,1.59,0,0,1,1.81-1.6,1.63,1.63,0,0,1,1.82,1.73h-.9a.92.92,0,0,0-.95-1,.78.78,0,0,0-.87.84c0,.49.22.73,1.09,1.05,1.22.45,1.76.88,1.76,1.93s-.72,1.76-2,1.76a1.78,1.78,0,0,1-2-1.86Z" transform="translate(-202.23 -17)"/><path class="cls-20" d="M555.06,403.93a1.08,1.08,0,0,0,1.12,1.14.91.91,0,0,0,1-1c0-.63-.33-.92-1.16-1.23-1.31-.48-1.69-.93-1.69-1.78a1.59,1.59,0,0,1,1.81-1.6,1.62,1.62,0,0,1,1.82,1.73h-.89a.92.92,0,0,0-1-1,.78.78,0,0,0-.87.84c0,.49.22.73,1.1,1.05,1.22.45,1.76.88,1.76,1.93s-.72,1.76-2,1.76a1.79,1.79,0,0,1-2-1.86Z" transform="translate(-202.23 -17)"/><path class="cls-20" d="M562,399.6c.68,2.54,1.2,4.36,1.29,5h0c.12-.69.69-2.78,1.29-5h.95L563.68,406c-.52,1.78-1,2-1.9,2a2.15,2.15,0,0,1-.45,0v-.78a2.29,2.29,0,0,0,.41,0c.67,0,.85-.43,1.1-1.41L561,399.6Z" transform="translate(-202.23 -17)"/><path class="cls-20" d="M570.42,402.57c0,2.14-.75,3.22-2.18,3.22s-2.17-1-2.17-3.2.86-3.09,2.21-3.09S570.42,400.53,570.42,402.57Zm-3.42,0c0,1.65.43,2.44,1.25,2.44s1.24-.8,1.24-2.45-.4-2.32-1.24-2.32S567,401,567,402.59Z" transform="translate(-202.23 -17)"/><path class="cls-20" d="M575.58,404c0,.77,0,1.37,0,1.67h-.87a5.24,5.24,0,0,1,0-.81,1.47,1.47,0,0,1-1.51.92c-.73,0-1.58-.29-1.58-1.82V399.6h.92v4.16c0,.78.23,1.25,1,1.25s1.2-.41,1.2-1.72V399.6h.92Z" transform="translate(-202.23 -17)"/><path class="cls-20" d="M577,401.67c0-1,0-1.63,0-2.07h.87a10.39,10.39,0,0,1,0,1.08,1.71,1.71,0,0,1,1.67-1.17v1a1.59,1.59,0,0,0-1.65,1.8v3.4H577Z" transform="translate(-202.23 -17)"/><path class="cls-20" d="M586.49,404.6c0,.38,0,.89,0,1.08h-.84a4.21,4.21,0,0,1-.06-.69,1.49,1.49,0,0,1-1.49.8A1.6,1.6,0,0,1,582.5,404c0-1.12.78-1.95,2.43-1.95a6,6,0,0,1,.66,0v-.81c0-.47-.09-1.07-1-1.07s-1,.63-1,1h-.88a1.69,1.69,0,0,1,1.93-1.76c1.23,0,1.82.57,1.82,1.69Zm-.88-1.8a4.67,4.67,0,0,0-.62,0c-1.12,0-1.58.52-1.58,1.19a1,1,0,0,0,1,1.08c.92,0,1.22-.63,1.22-1.91Z" transform="translate(-202.23 -17)"/><path class="cls-20" d="M591.8,403.82a1.94,1.94,0,0,1-2,2c-1.65,0-2.1-1.41-2.1-3.17s.58-3.12,2.18-3.12a1.83,1.83,0,0,1,1.93,1.91h-.93c0-.24-.1-1.16-1-1.16s-1.25,1-1.25,2.36.35,2.42,1.2,2.42,1-.89,1.07-1.21Z" transform="translate(-202.23 -17)"/><path class="cls-20" d="M596.75,403.82a1.94,1.94,0,0,1-2,2c-1.66,0-2.1-1.41-2.1-3.17s.58-3.12,2.18-3.12a1.83,1.83,0,0,1,1.93,1.91h-.94c0-.24-.09-1.16-1-1.16s-1.25,1-1.25,2.36.35,2.42,1.2,2.42,1-.89,1.07-1.21Z" transform="translate(-202.23 -17)"/><path class="cls-20" d="M601.94,402.57c0,2.14-.75,3.22-2.18,3.22s-2.17-1-2.17-3.2.85-3.09,2.21-3.09S601.94,400.53,601.94,402.57Zm-3.42,0c0,1.65.43,2.44,1.25,2.44s1.23-.8,1.23-2.45-.4-2.32-1.23-2.32S598.52,401,598.52,402.59Z" transform="translate(-202.23 -17)"/><path class="cls-20" d="M607.1,404c0,.77,0,1.37,0,1.67h-.87a6.43,6.43,0,0,1,0-.81,1.46,1.46,0,0,1-1.5.92c-.73,0-1.58-.29-1.58-1.82V399.6H604v4.16c0,.78.23,1.25,1,1.25s1.2-.41,1.2-1.72V399.6h.92Z" transform="translate(-202.23 -17)"/><path class="cls-20" d="M608.51,401.48c0-1.24,0-1.6,0-1.88h.88a6.12,6.12,0,0,1,0,.8,1.48,1.48,0,0,1,1.49-.9c.92,0,1.63.5,1.63,1.85v4.33h-.92v-4.16c0-.74-.25-1.24-1-1.24s-1.22.53-1.22,1.78v3.62h-.92Z" transform="translate(-202.23 -17)"/><path class="cls-20" d="M613.25,399.6h.89V398h.91v1.62h1.1v.75h-1.1v4c0,.42.09.68.57.68a3.09,3.09,0,0,0,.45,0v.67a2.46,2.46,0,0,1-.75.1c-.74,0-1.18-.29-1.18-1.25v-4.16h-.89Z" transform="translate(-202.23 -17)"/><path class="cls-20" d="M618.46,403.23v-.16a3,3,0,0,1,.85-2,2.5,2.5,0,0,0,.67-1.66c0-.67-.25-1.21-1-1.21s-1,.55-1,1.41h-.86a1.91,1.91,0,0,1,1.95-2.14,1.72,1.72,0,0,1,1.87,1.94,3.3,3.3,0,0,1-.94,2.22,2.35,2.35,0,0,0-.58,1.54v.09Zm0,2.46v-1.51h.92v1.51Z" transform="translate(-202.23 -17)"/><path class="cls-20" d="M637.21,335.58H480.63c-8.61,0-15.62-6.74-15.62-15s7-15,15.62-15H637.21c8.61,0,15.62,6.74,15.62,15S645.82,335.58,637.21,335.58ZM480.63,307a13.9,13.9,0,0,0-14.14,13.61c0,7.5,6.34,13.6,14.14,13.6H637.21c7.8,0,14.15-6.1,14.15-13.6S645,307,637.21,307Z" transform="translate(-202.23 -17)"/><path class="cls-20" d="M558.92,187.5c-16,0-29.08,12.55-29.08,28s13,28,29.08,28S588,230.9,588,215.48,575,187.5,558.92,187.5Zm19,46.86c-1.11-5.34-5.54-9.75-11.55-11.78a12.33,12.33,0,0,0,5.47-10.18,13,13,0,0,0-26,0,12.35,12.35,0,0,0,5.55,10.23c-5.93,2.05-10.29,6.44-11.39,11.73a25.7,25.7,0,0,1-8.35-18.88c0-14.48,12.25-26.27,27.3-26.27s27.31,11.79,27.31,26.27A25.74,25.74,0,0,1,577.88,234.36Z" transform="translate(-202.23 -17)"/></g></g></svg>